<svg width="32" height="32" viewBox="0 0 32 32" fill="none" xmlns="http://www.w3.org/2000/svg">
<path d="M0 6C0 2.68629 2.68629 0 6 0H26C29.3137 0 32 2.68629 32 6V26C32 29.3137 29.3137 32 26 32H6C2.68629 32 0 29.3137 0 26V6Z" fill="black"/>
<path d="M4.584 27V20.064C4.584 19.592 4.72 19.212 4.992 18.924C5.264 18.628 5.688 18.48 6.264 18.48H7.272V19.368H6.336C6.088 19.368 5.9 19.436 5.772 19.572C5.652 19.708 5.592 19.896 5.592 20.136V27H4.584ZM3.72 21.528V20.64H7.188V21.528H3.72Z" fill="white"/>
<path d="M10.0471 27.144C9.39109 27.144 8.86709 26.992 8.47509 26.688C8.09109 26.384 7.89909 25.96 7.89909 25.416C7.89909 24.872 8.05909 24.444 8.37909 24.132C8.69909 23.82 9.20709 23.6 9.90309 23.472L12.1591 23.052C12.1591 22.516 12.0311 22.116 11.7751 21.852C11.5271 21.588 11.1511 21.456 10.6471 21.456C10.2071 21.456 9.85909 21.556 9.60309 21.756C9.34709 21.948 9.17109 22.228 9.07509 22.596L8.00709 22.512C8.12709 21.912 8.41509 21.428 8.87109 21.06C9.33509 20.684 9.92709 20.496 10.6471 20.496C11.4631 20.496 12.0871 20.728 12.5191 21.192C12.9511 21.648 13.1671 22.28 13.1671 23.088V25.716C13.1671 25.86 13.1911 25.964 13.2391 26.028C13.2951 26.084 13.3831 26.112 13.5031 26.112H13.7551V27C13.7231 27.008 13.6711 27.012 13.5991 27.012C13.5271 27.02 13.4511 27.024 13.3711 27.024C13.0831 27.024 12.8471 26.98 12.6631 26.892C12.4871 26.796 12.3591 26.652 12.2791 26.46C12.1991 26.26 12.1591 26 12.1591 25.68L12.2791 25.704C12.2231 25.976 12.0871 26.224 11.8711 26.448C11.6551 26.664 11.3871 26.836 11.0671 26.964C10.7471 27.084 10.4071 27.144 10.0471 27.144ZM10.1431 26.256C10.5671 26.256 10.9271 26.176 11.2231 26.016C11.5271 25.848 11.7591 25.624 11.9191 25.344C12.0791 25.056 12.1591 24.736 12.1591 24.384V23.928L10.0951 24.312C9.66309 24.392 9.36309 24.516 9.19509 24.684C9.03509 24.844 8.95509 25.056 8.95509 25.32C8.95509 25.616 9.05909 25.848 9.26709 26.016C9.48309 26.176 9.77509 26.256 10.1431 26.256Z" fill="white"/>
<path d="M17.1862 27.144C16.6182 27.144 16.1342 27.052 15.7342 26.868C15.3422 26.684 15.0342 26.432 14.8102 26.112C14.5942 25.784 14.4702 25.412 14.4382 24.996L15.4942 24.924C15.5582 25.308 15.7222 25.616 15.9862 25.848C16.2502 26.072 16.6502 26.184 17.1862 26.184C17.6182 26.184 17.9622 26.116 18.2182 25.98C18.4822 25.836 18.6142 25.608 18.6142 25.296C18.6142 25.128 18.5742 24.988 18.4942 24.876C18.4142 24.764 18.2582 24.668 18.0262 24.588C17.7942 24.5 17.4502 24.416 16.9942 24.336C16.3862 24.224 15.9062 24.088 15.5542 23.928C15.2102 23.76 14.9622 23.556 14.8102 23.316C14.6662 23.068 14.5942 22.776 14.5942 22.44C14.5942 21.872 14.8022 21.408 15.2182 21.048C15.6342 20.68 16.2262 20.496 16.9942 20.496C17.5142 20.496 17.9502 20.592 18.3022 20.784C18.6622 20.968 18.9422 21.216 19.1422 21.528C19.3502 21.832 19.4862 22.168 19.5502 22.536L18.4942 22.608C18.4462 22.384 18.3582 22.188 18.2302 22.02C18.1022 21.844 17.9342 21.708 17.7262 21.612C17.5182 21.508 17.2702 21.456 16.9822 21.456C16.5262 21.456 16.1902 21.544 15.9742 21.72C15.7582 21.896 15.6502 22.12 15.6502 22.392C15.6502 22.6 15.6982 22.772 15.7942 22.908C15.8982 23.036 16.0622 23.144 16.2862 23.232C16.5102 23.312 16.8102 23.384 17.1862 23.448C17.8342 23.56 18.3382 23.696 18.6982 23.856C19.0582 24.016 19.3102 24.212 19.4542 24.444C19.5982 24.676 19.6702 24.96 19.6702 25.296C19.6702 25.688 19.5582 26.024 19.3342 26.304C19.1182 26.576 18.8222 26.784 18.4462 26.928C18.0782 27.072 17.6582 27.144 17.1862 27.144Z" fill="white"/>
<path d="M23.1278 27C22.5518 27 22.1238 26.868 21.8438 26.604C21.5718 26.34 21.4358 25.928 21.4358 25.368V19.152H22.4438V25.344C22.4438 25.632 22.5078 25.832 22.6358 25.944C22.7638 26.056 22.9598 26.112 23.2238 26.112H24.1358V27H23.1278ZM20.4998 21.528V20.64H24.1358V21.528H20.4998Z" fill="white"/>
<path d="M25.5577 27V20.64H26.4457L26.4937 22.248L26.3977 22.212C26.4777 21.668 26.6497 21.272 26.9137 21.024C27.1857 20.768 27.5457 20.64 27.9937 20.64H28.6177V21.6H28.0057C27.6857 21.6 27.4177 21.66 27.2017 21.78C26.9937 21.892 26.8337 22.064 26.7217 22.296C26.6177 22.52 26.5657 22.808 26.5657 23.16V27H25.5577Z" fill="white"/>
</svg>
